<?xml version="1.0" encoding="utf-8"?>
<!-- Generator: Adobe Illustrator 25.1.0, SVG Export Plug-In . SVG Version: 6.00 Build 0)  -->
<svg version="1.1" id="Layer_1" xmlns="http://www.w3.org/2000/svg" xmlns:xlink="http://www.w3.org/1999/xlink" x="0px" y="0px"
	 viewBox="0 0 838.419 194.247" style="enable-background:new 0 0 838.419 194.247;" xml:space="preserve">
<style type="text/css">
	.st0{fill:#160D47;}
	.st1{fill:#24ABE2;}
	.st2{fill:#EF5A2C;}
	.st3{fill:#829099;}
</style>
<g>
	<path class="st0" d="M223.494,67.669V54.428h74.11v13.241h-30.159v122.017h-13.792V67.669H223.494z"/>
	<path class="st0" d="M326.607,54.428h77.514v13.241h-63.998v42.389h63.446v13.242h-63.446v53.148h63.446v13.239h-76.962V54.428z"/>
	<path class="st0" d="M508.244,54.428l-1.654,13.241h-51.812l-6.018,44.228h51.854l-1.657,12.965h-51.958l-8.818,64.824h-13.334
		L443.14,54.428H508.244z"/>
	<path class="st0" d="M672.229,54.428v135.258h-12.689V96.507l-58.756,93.179h-3.394l-34.996-96.547l-27.814,96.547h-13.701
		l39.074-135.258h2.273l39.451,109.949l68.436-109.949H672.229z"/>
	<path class="st0" d="M775.342,54.428l63.077,135.258h-14.6l-21.274-44.504h-58.27l-21.069,44.504h-15.081l63.907-135.258H775.342z
		 M773.636,83.165l-23.179,48.961h46.242L773.636,83.165z"/>
</g>
<path class="st1" d="M149.42,0H0v52.814l38.158,8.907V32.295l156.091,36.436V44.829C194.249,20.11,174.138,0,149.42,0z"/>
<polygon class="st2" points="137.582,194.247 194.084,194.247 194.084,75.593 44.878,40.764 44.878,63.291 137.582,84.93 "/>
<polygon class="st0" points="38.158,68.622 0,59.714 0,194.247 38.158,194.247 "/>
<polygon class="st3" points="130.862,90.261 44.878,70.19 44.878,194.247 130.862,194.247 "/>
</svg>
